<?xml version="1.0" encoding="utf-8"?>
<!-- Generator: Adobe Illustrator 27.9.4, SVG Export Plug-In . SVG Version: 9.03 Build 54784)  -->
<svg version="1.1" id="Capa_1" xmlns="http://www.w3.org/2000/svg" xmlns:xlink="http://www.w3.org/1999/xlink" x="0px" y="0px"
	 viewBox="0 0 800 300" style="enable-background:new 0 0 800 300;" xml:space="preserve">
<style type="text/css">
	.st0{fill:#0F206C;}
	.st1{fill:#FFFFFF;}
	.st2{fill:#FF8300;}
</style>
<rect x="-5.9" y="-5.6" class="st0" width="811.9" height="311.2"/>
<path class="st1" d="M163,154.3c-0.4,0-0.9,0-1.3,0c-5,0-9.8,0.9-14.2,2.6l-3,7.5c-5.2,0.6-9.6,3.5-12.3,7.7c0,0-13.9,5.7-13.9,5.7
	c0,0,0,0,0,0.1c-1.4,0.3-2.4,1.6-2.4,3.1c0,1,0.5,1.9,1.3,2.5c-0.1,0.2-0.1,0.4,0,0.7l4.7,10.5c2.1,0.3,4.4,0,6.4-0.9
	c4.1-1.7,5.3-2.4,7.1-2.5c3.2-0.2,6.3,2,6.7,5.2c0.5,3.6-2.2,6.6-5.6,6.8h-1.9c-1.2,0-2.7-0.3-3.6-1c-1.5-0.8-2.6-2.3-2.8-4.1
	c-3.3,2.9-4.5,6-4.6,9c-0.1,1.7-0.1,3.8-0.1,6.1H154c-0.1,0.1-0.3,0.1-0.5,0.2c-23.6,9.7-39,32.8-39,58.3v0.1
	c42.2-6.8,74.2-44.2,74.2-88.3v-1.9C188.7,167.1,177.5,154.9,163,154.3z M50.1,213.4c-0.2-0.1-0.3-0.1-0.5-0.2h30.7
	c0-2.4,0-4.4-0.1-6.1c-0.1-3.1-1.3-6.1-4.6-9c-0.2,1.8-1.3,3.3-2.8,4.1c-0.9,0.6-2.5,1-3.7,1h-1.9c-3.4-0.2-6.1-3.2-5.6-6.8
	c0.4-3.2,3.5-5.4,6.7-5.2c1.8,0.1,3,0.8,7.1,2.5c2,0.9,4.3,1.2,6.4,0.9l4.7-10.5c0.1-0.3,0.1-0.5,0-0.7c0.8-0.6,1.3-1.5,1.3-2.5
	c0-1.5-1-2.8-2.4-3.1c0,0,0,0,0-0.1c0,0-13.9-5.7-13.9-5.7c-2.7-4.2-7.1-7.1-12.3-7.7l-3-7.5c-4.4-1.7-9.2-2.6-14.2-2.6
	c-0.1,0-0.3,0-0.4,0c-14.8,0.1-26.6,12.5-26.6,27.3v2c0,44.1,31.9,81.5,74.2,88.3v-0.1C89,246.2,73.7,223.2,50.1,213.4z
	 M109.2,272.6c-2.4,0.2-4.9,0.4-7.4,0.4c-2.5,0-5-0.2-7.4-0.4v-56.7h-0.1l0-47.5c-0.1-5.9-3.2-10.1-7.8-13c-3.8-2.2-7.2-5.1-9.8-8.7
	c-0.4-0.5-1-0.8-1.6-0.7c-0.8,0.1-1.6,0.1-2.4,0.1c-16.2,0-29.7-12.4-31.2-28.3c-0.1-0.8-0.7-1.4-1.5-1.6c-11.3-1.6-20-11.3-20-23
	s8.7-21.4,20-23c0.8-0.1,1.4-0.7,1.5-1.6C43,52.8,56.4,40.4,72.7,40.4c0.8,0,1.6,0,2.4,0.1c0.6,0,1.2-0.2,1.6-0.7
	C82.3,32,91.5,27,101.8,27l0,0l0,0c10.3,0,19.5,5,25.2,12.7c0.4,0.5,1,0.8,1.6,0.7c0.8-0.1,1.6-0.1,2.4-0.1
	c16.2,0,29.7,12.5,31.2,28.3c0.1,0.8,0.7,1.4,1.5,1.6c11.3,1.6,19.9,11.3,19.9,23s-8.7,21.4-19.9,23c-0.8,0.1-1.4,0.7-1.5,1.6
	c-1.5,15.9-14.9,28.3-31.2,28.3c-0.8,0-1.6,0-2.4-0.1c-0.6-0.1-1.2,0.2-1.6,0.7c-2.6,3.5-5.9,6.5-9.8,8.7c-4.6,2.9-7.7,7.1-7.8,13
	l0,47.5h-0.1L109.2,272.6L109.2,272.6z M145.5,178.7l-7.7-3.1l14.5-4.1L145.5,178.7z M65.8,175.6l-7.7,3.1l-6.9-7.2L65.8,175.6z"/>
<g>
	<path class="st1" d="M338.6,127.9c-3.6-2.7-7.6-3.6-12.2-3.6c-3.6,0-7,1.1-7,3.9c0,3.6,3.5,4.1,8.6,4.6
		c10.3,1.1,21.1,5.3,21.1,17.2c0,11.8-11.1,16.8-22.8,16.9c-9.4,0.1-16-1.6-23.2-9.1l8.1-9.3c5.1,5,10.8,5.9,15.2,5.9
		c4.8,0,8.2-1.7,8.2-4.6c0-2.6-3-4.2-8.7-4.8c-11.4-1-21.1-3.9-21.1-16.8c0-11,10.8-15.7,21.7-15.7c7.8,0,13.9,1.8,19.4,6.2
		L338.6,127.9z"/>
	<path class="st1" d="M392.2,150.9h-25.6c1,3.3,5.2,4.7,8.2,4.7c4,0,7-1.2,9.4-3l6.7,7.5c-4.4,4.1-10.4,6.1-16.7,6.1
		c-11.6,0-21.4-5.7-21.4-19.1c0-13.4,10.5-19.3,20.4-19.3C386.2,127.9,395.3,136.5,392.2,150.9z M379.9,142.2
		c-0.4-5.8-12.4-6-13.3,0H379.9z"/>
	<path class="st1" d="M432.5,159.9c-4.4,3.9-9.6,6.2-15.1,6.2c-10.7,0-20.8-5.3-20.8-19c0-13.4,10.2-19.2,20.5-19.2
		c5.3,0,10.5,1.9,14.4,5.7l-7.3,7.9c-1.8-1.9-3.9-2.7-6.3-2.7c-5.2,0-8,3.8-8,8.4c0,4,2.8,7.6,7.9,7.6c2.5,0,5-1,6.8-3L432.5,159.9z
		"/>
	<path class="st1" d="M449.3,128.8l0.8,4c1.9-3.4,5.3-4.9,8.9-4.9c3.7,0,7.3,1.4,9.6,3.9l-5.5,9.9c-2.2-1.8-3.9-2.2-6.2-2.2
		c-3.4,0-6.3,2.1-6.3,6.9v19.1h-13.6v-36.6L449.3,128.8L449.3,128.8z"/>
	<path class="st1" d="M508.5,150.9h-25.6c1,3.3,5.2,4.7,8.2,4.7c4,0,7-1.2,9.4-3l6.7,7.5c-4.4,4.1-10.4,6.1-16.7,6.1
		c-11.6,0-21.4-5.7-21.4-19.1c0-13.4,10.5-19.3,20.4-19.3C502.5,127.9,511.6,136.5,508.5,150.9z M496.3,142.2
		c-0.4-5.8-12.4-6-13.3,0H496.3z"/>
	<path class="st1" d="M531.7,118.4V129h8.2v10.5h-8.3v12c0.1,2.6,1.6,3.6,3.6,3.6c1.3,0,2.9-0.5,4-1.3l3,10.1
		c-3.1,1.8-6.8,2.4-10.5,2.4c-7.3,0-13.8-3.3-13.6-14.8v-12h-5.9V129h5.9v-9.1L531.7,118.4z"/>
	<path class="st1" d="M581.6,142.3v23.1h-12.4l-0.6-3.8c-2.6,2.9-5.9,4.4-10,4.4c-8.9,0-13.9-5.1-13.9-13.2
		c0-8.5,7.8-11.8,15.9-11.8c1.9,0,5,0.4,7.4,1.2c-0.2-3.3-3.3-4.4-7-4.4c-5.1,0-9.8,1.6-11.9,2.4l-1.8-9.1c4.8-2.3,9.9-3.4,14.1-3.4
		C572.7,127.8,581.6,130.3,581.6,142.3z M562.4,156c2.1-0.1,5.4-1.3,5.9-4.7c-1.2-0.7-3.6-1.5-6-1.5c-2.6,0-4.2,1.1-4.2,3.1
		C558.1,155.5,560.5,156,562.4,156z"/>
	<path class="st1" d="M601.5,128.8l0.8,4c1.9-3.4,5.3-4.9,8.9-4.9c3.7,0,7.3,1.4,9.6,3.9l-5.5,9.9c-2.2-1.8-3.9-2.2-6.2-2.2
		c-3.4,0-6.3,2.1-6.3,6.9v19.1h-13.7v-36.6L601.5,128.8L601.5,128.8z"/>
	<path class="st1" d="M624.3,165.4v-36.6h13.7v36.6H624.3z M641.3,113h-12.7l-4.2,11.7v0.4h11.4l5.5-11.5L641.3,113L641.3,113z"/>
	<path class="st1" d="M680.7,142.3v23.1h-12.4l-0.6-3.8c-2.6,2.9-5.9,4.4-10,4.4c-8.9,0-13.9-5.1-13.9-13.2
		c0-8.5,7.8-11.8,15.9-11.8c1.8,0,5,0.4,7.4,1.2c-0.2-3.3-3.3-4.4-7-4.4c-5.1,0-9.8,1.6-11.9,2.4l-1.8-9.1c4.8-2.3,9.9-3.4,14.1-3.4
		C671.7,127.8,680.7,130.3,680.7,142.3z M661.4,156c2.1-0.1,5.4-1.3,5.9-4.7c-1.2-0.7-3.6-1.5-6-1.5c-2.6,0-4.2,1.1-4.2,3.1
		C657.2,155.5,659.5,156,661.4,156z"/>
	<path class="st1" d="M331.4,178.7h13.6v51.9h-12.2l-0.6-3.9c-3.1,3.6-8,4.8-12.1,4.6c-10.8-0.7-16.8-7.4-16.8-19
		c0-11.2,7.1-19.1,17.8-19.1c4.7,0,8.2,1.5,10.2,3.9V178.7z M317,212.3c0,5.1,3.3,8,7.4,8c4.6,0,7.4-3.8,7.4-7.6
		c0-4.4-2.5-8.5-7.4-8.5C320.3,204.2,317,207.1,317,212.3z"/>
	<path class="st1" d="M390.5,216.1h-25.6c1,3.3,5.2,4.7,8.2,4.7c4,0,7-1.2,9.4-3l6.7,7.5c-4.4,4.1-10.4,6.1-16.7,6.1
		c-11.6,0-21.4-5.7-21.4-19.1c0-13.4,10.5-19.3,20.4-19.3C384.5,193.1,393.6,201.7,390.5,216.1z M378.2,207.4
		c-0.4-5.8-12.4-6-13.3,0H378.2z"/>
	<path class="st1" d="M446.9,193.1c-3.6-2.7-7.6-3.6-12.2-3.6c-3.6,0-7,1.1-7,3.9c0,3.6,3.5,4.1,8.6,4.6
		c10.3,1.1,21.1,5.3,21.1,17.2c0,11.8-11.1,16.8-22.8,16.9c-9.4,0.1-16-1.6-23.2-9.1l8.1-9.3c5.1,5,10.8,5.9,15.2,5.9
		c4.8,0,8.2-1.7,8.2-4.6c0-2.6-3-4.2-8.7-4.8c-11.4-1-21.1-3.9-21.1-16.8c0-11,10.8-15.7,21.7-15.7c7.8,0,13.9,1.8,19.4,6.2
		L446.9,193.1z"/>
	<path class="st1" d="M500.5,216.1h-25.6c1,3.3,5.2,4.7,8.2,4.7c4,0,7-1.2,9.4-3l6.7,7.5c-4.4,4.1-10.4,6.1-16.7,6.1
		c-11.6,0-21.4-5.7-21.4-19.1c0-13.4,10.5-19.3,20.4-19.3C494.5,193.1,503.6,201.7,500.5,216.1z M488.2,207.4
		c-0.4-5.8-12.4-6-13.3,0H488.2z"/>
	<path class="st1" d="M518.2,233.2c-0.2,5.7,3.3,7,6.9,7c3.6,0,6.8-1.7,6.8-5.3c0-2.7-1.6-4.9-6.6-4.9c-12.3,0-20.4-7.1-20.4-18.5
		c0-11.5,9.1-18.8,20.4-18.8c2.5,0,5.1,0.5,7.6,1.4c1.3-1.6,2.8-3.5,3.9-5.1l9.9,7.1l-4.8,5.6c2.7,3,3.6,6.6,3.5,9.9
		c-0.1,4.6-2.5,9.1-6.7,12.2c6.8,3.9,7.2,9.1,7.2,11.1c0,11.9-10.3,16.3-20.8,16.3c-13.1,0-20.5-6.8-19.7-18L518.2,233.2
		L518.2,233.2z M518.1,211.5c0,4.4,3.1,7.2,7.1,7.2c3.6,0,6.9-2.3,6.9-7.2c0-4.1-2.9-7.6-6.9-7.6C521.3,204,518.1,206.6,518.1,211.5
		z"/>
	<path class="st1" d="M565.7,193.9v20.3c0,4.5,2.6,6.1,5.1,6.1c3.3,0,6.3-2,6.3-6.8v-19.5h13.5v36.6h-12.1l-0.6-4
		c-3.1,3.6-7.7,5-11.6,4.9c-7.7-0.1-14.3-4.1-14.3-17.2v-20.3L565.7,193.9L565.7,193.9z"/>
	<path class="st1" d="M610.9,193.9l0.8,4c1.9-3.4,5.3-4.9,8.9-4.9c3.7,0,7.3,1.4,9.6,3.9l-5.5,9.9c-2.2-1.8-3.9-2.2-6.2-2.2
		c-3.4,0-6.3,2.1-6.3,6.9v19.1h-13.7v-36.6H610.9z"/>
	<path class="st1" d="M640.5,177.6c3.8,0,7.6,2.3,7.6,6.9c0,4.5-3.9,6.8-7.6,6.8c-3.9,0-7.7-2.3-7.7-6.8
		C632.8,179.9,636.7,177.6,640.5,177.6z M647.4,230.6v-36.1h-13.7v36.1H647.4z"/>
	<path class="st1" d="M681.4,178.7h13.7v51.9h-12.2l-0.6-3.9c-3.1,3.6-8,4.8-12.1,4.6c-10.8-0.7-16.8-7.4-16.8-19
		c0-11.2,7.1-19.1,17.8-19.1c4.7,0,8.2,1.5,10.2,3.9L681.4,178.7L681.4,178.7z M667,212.3c0,5.1,3.3,8,7.3,8c4.6,0,7.3-3.8,7.3-7.6
		c0-4.4-2.5-8.5-7.3-8.5C670.3,204.2,667,207.1,667,212.3z"/>
	<path class="st1" d="M737.8,207.5v23.1h-12.4l-0.6-3.8c-2.6,2.9-5.9,4.4-10,4.4c-8.9,0-13.9-5.1-13.9-13.2
		c0-8.5,7.8-11.8,15.9-11.8c1.9,0,5,0.4,7.4,1.2c-0.2-3.3-3.3-4.4-7-4.4c-5.1,0-9.8,1.6-11.9,2.4l-1.8-9.1c4.8-2.3,9.9-3.4,14.1-3.4
		C728.8,193,737.8,195.5,737.8,207.5z M718.5,221.2c2.1-0.1,5.4-1.3,5.9-4.7c-1.2-0.7-3.6-1.5-6-1.5c-2.6,0-4.2,1.1-4.2,3.1
		C714.3,220.6,716.7,221.2,718.5,221.2z"/>
	<path class="st1" d="M771.5,178.7h13.7v51.9H773l-0.6-3.9c-3.1,3.6-8,4.8-12.1,4.6c-10.8-0.7-16.8-7.4-16.8-19
		c0-11.2,7.1-19.1,17.8-19.1c4.7,0,8.2,1.5,10.2,3.9L771.5,178.7L771.5,178.7z M757.1,212.3c0,5.1,3.3,8,7.3,8
		c4.6,0,7.3-3.8,7.3-7.6c0-4.4-2.5-8.5-7.3-8.5C760.3,204.2,757.1,207.1,757.1,212.3z"/>
</g>
<polygon class="st2" points="258.3,85.7 235.7,244 235.7,244 235.5,245.1 239.9,245.1 262.7,85.7 "/>
</svg>
