<?xml version="1.0" encoding="UTF-8" standalone="no"?>
<svg
   version="1.0"
   width="209pt"
   height="269pt"
   viewBox="0 0 209 269"
   preserveAspectRatio="xMidYMid"
   id="svg3"
   sodipodi:docname="logo2.svg"
   xmlns:inkscape="http://www.inkscape.org/namespaces/inkscape"
   xmlns:sodipodi="http://sodipodi.sourceforge.net/DTD/sodipodi-0.dtd"
   xmlns="http://www.w3.org/2000/svg"
   xmlns:svg="http://www.w3.org/2000/svg">
  <defs
     id="defs3" />
  <sodipodi:namedview
     id="namedview3"
     pagecolor="#ffffff"
     bordercolor="#000000"
     borderopacity="0.25"
     inkscape:showpageshadow="2"
     inkscape:pageopacity="0.0"
     inkscape:pagecheckerboard="0"
     inkscape:deskcolor="#d1d1d1"
     inkscape:document-units="pt">
    <inkscape:page
       x="0"
       y="0"
       width="209.00002"
       height="269"
       id="page2"
       margin="0"
       bleed="0" />
  </sodipodi:namedview>
  <g
     transform="matrix(0.1,0,0,-0.1,0,269)"
     fill="#000000"
     stroke="none"
     id="g3"
     style="fill:#465055;fill-opacity:1">
    <path
       d="m 943,2414 c -23,-8 -65,-35 -92,-60 -38,-34 -57,-44 -83,-44 -50,0 -119,-26 -160,-60 -37,-31 -98,-138 -98,-172 0,-10 -8,-21 -17,-25 -67,-22 -108,-50 -133,-90 -73,-114 -31,-242 96,-299 46,-20 52,-27 62,-67 7,-24 27,-66 45,-93 42,-61 136,-114 201,-114 43,0 60,-11 167,-111 l 39,-37 V 762 c 0,-531 -5,-492 65,-492 70,0 65,-37 65,477 0,514 0,511 64,555 17,12 47,36 66,53 28,26 46,34 93,38 69,7 131,40 180,97 30,35 43,63 62,136 3,14 19,25 45,33 140,42 187,219 86,329 -23,27 -87,62 -110,62 -9,0 -18,12 -22,28 -14,66 -28,93 -67,138 -49,55 -124,94 -185,94 -35,0 -50,6 -85,39 -23,21 -58,46 -77,56 -47,24 -153,29 -207,9 z"
       id="path1"
       style="fill:#465055;fill-opacity:1" />
    <path
       d="m 431,1296 c -49,-18 -106,-70 -130,-119 -17,-34 -21,-62 -21,-133 0,-341 238,-651 569,-743 l 74,-21 -6,63 c -8,87 -45,183 -100,260 -50,70 -93,108 -183,162 l -58,35 h 137 137 v 25 c 0,14 -7,42 -15,61 l -15,36 -26,-21 c -32,-25 -61,-27 -92,-5 -27,18 -29,55 -4,77 23,21 52,21 99,2 53,-22 60,-19 83,32 39,89 40,87 -37,117 -37,15 -81,40 -98,56 -16,16 -42,32 -57,35 -19,5 -31,17 -40,41 -9,26 -20,36 -48,44 -47,13 -127,11 -169,-4 z m 239,-152 c 53,-16 54,-16 30,-30 -38,-20 -57,-17 -80,16 -25,35 -22,35 50,14 z"
       id="path2"
       style="fill:#465055;fill-opacity:1" />
    <path
       d="m 1473,1299 c -23,-7 -35,-19 -44,-43 -9,-25 -20,-36 -41,-40 -16,-3 -42,-18 -57,-34 -16,-15 -58,-41 -95,-56 -43,-19 -66,-34 -66,-45 0,-25 48,-121 60,-121 6,0 27,7 47,15 43,18 85,19 101,3 20,-20 15,-76 -7,-88 -30,-16 -69,-12 -90,9 -17,17 -21,18 -32,5 -6,-8 -14,-34 -16,-59 l -6,-44 134,-3 133,-3 -68,-40 c -131,-77 -228,-214 -260,-368 -24,-113 -26,-108 44,-91 77,18 172,61 247,112 73,50 186,170 232,247 72,119 119,305 108,431 -10,130 -98,216 -226,221 -36,1 -80,-2 -98,-8 z m -20,-171 c -30,-29 -33,-30 -63,-18 -17,7 -28,15 -25,19 9,8 76,29 100,30 17,1 15,-3 -12,-31 z"
       id="path3"
       style="fill:#465055;fill-opacity:1" />
  </g>
</svg>
